<svg width="721" height="761" viewBox="0 0 721 761" fill="none" xmlns="http://www.w3.org/2000/svg">
<rect x="174" y="20" width="308" height="640" fill="#EF6353"/>
<line x1="333" y1="522" x2="333" y2="789" stroke="#413D45" stroke-width="2" stroke-linecap="round"/>
<path d="M403.329 660.078C403.329 698.829 371.915 730.243 333.164 730.243C294.414 730.243 263 698.829 263 660.078C263 621.328 294.414 589.914 333.164 589.914C371.915 589.914 403.329 621.328 403.329 660.078Z" fill="#FCF5EC"/>
<path fill-rule="evenodd" clip-rule="evenodd" d="M385.899 637.645C388.784 644.61 390.269 652.075 390.269 659.614H332.862L275.455 659.614C275.455 652.075 276.939 644.61 279.824 637.645C282.709 630.68 286.938 624.352 292.269 619.021C297.599 613.69 303.928 609.462 310.893 606.577C317.858 603.692 325.323 602.207 332.862 602.207C340.401 602.207 347.866 603.692 354.83 606.577C361.795 609.462 368.124 613.69 373.455 619.021C378.785 624.352 383.014 630.68 385.899 637.645ZM373.651 643.236C375.862 648.392 377 653.919 377 659.5H333L289 659.5C289 653.919 290.138 648.392 292.349 643.236C294.561 638.08 297.802 633.394 301.887 629.448C305.973 625.501 310.824 622.371 316.162 620.235C321.5 618.099 327.222 617 333 617C338.778 617 344.5 618.099 349.838 620.235C355.176 622.371 360.027 625.501 364.113 629.448C368.198 633.394 371.439 638.08 373.651 643.236Z" fill="#EF6353"/>
<circle cx="674.5" cy="740.5" r="105.5" fill="#FDD491"/>
<rect x="673.79" y="260.205" width="127.571" height="48.4771" fill="#EF6353"/>
<rect x="634" y="443" width="41" height="41" fill="#413D45"/>
<line x1="755.745" y1="16.4143" x2="592.16" y2="180" stroke="#413D45" stroke-width="2" stroke-linecap="round"/>
<path d="M312.831 227.781C327.902 212.716 345.792 200.768 365.481 192.618C385.17 184.467 406.271 180.275 427.58 180.279C448.888 180.284 469.988 184.486 489.673 192.645C509.358 200.803 527.243 212.76 542.308 227.831C557.372 242.902 569.32 260.792 577.471 280.481C585.621 300.169 589.813 321.27 589.809 342.579C589.804 363.888 585.602 384.987 577.444 404.673C569.285 424.358 557.329 442.243 542.258 457.307L427.544 342.544L312.831 227.781Z" fill="#FCF5EC"/>
<path d="M312.831 227.781C327.902 212.716 345.792 200.768 365.481 192.618C385.17 184.467 406.271 180.275 427.58 180.279C448.888 180.284 469.988 184.486 489.673 192.645C509.358 200.803 527.243 212.76 542.308 227.831C557.372 242.902 569.32 260.792 577.471 280.481C585.621 300.169 589.813 321.27 589.809 342.579C589.804 363.888 585.602 384.987 577.444 404.673C569.285 424.358 557.329 442.243 542.258 457.307L427.544 342.544L312.831 227.781Z" fill="#FCF5EC"/>
<path d="M542.257 457.307C527.186 472.371 509.296 484.32 489.607 492.47C469.918 500.62 448.817 504.813 427.508 504.808C406.199 504.804 385.1 500.602 365.415 492.443C345.73 484.284 327.845 472.328 312.78 457.257C297.716 442.186 285.768 424.296 277.617 404.607C269.467 384.918 265.275 363.817 265.279 342.508C265.284 321.199 269.485 300.1 277.644 280.415C285.803 260.73 297.759 242.845 312.83 227.78L427.544 342.544L542.257 457.307Z" fill="#413D45"/>
<path d="M542.257 457.307C527.186 472.371 509.296 484.32 489.607 492.47C469.918 500.62 448.817 504.813 427.508 504.808C406.199 504.804 385.1 500.602 365.415 492.443C345.73 484.284 327.845 472.328 312.78 457.257C297.716 442.186 285.768 424.296 277.617 404.607C269.467 384.918 265.275 363.817 265.279 342.508C265.284 321.199 269.485 300.1 277.644 280.415C285.803 260.73 297.759 242.845 312.83 227.78L427.544 342.544L542.257 457.307Z" fill="#413D45"/>
<rect x="69.8022" y="284.79" width="151.684" height="151.684" fill="#FDD491"/>
<rect y="620" width="70" height="71" fill="#FDD491"/>
<line x1="439.214" y1="559.738" x2="673.04" y2="559.738" stroke="black" stroke-width="1.5" stroke-linecap="round"/>
<line x1="439.214" y1="566.118" x2="673.04" y2="566.118" stroke="black" stroke-width="1.5" stroke-linecap="round"/>
<line x1="439.214" y1="572.495" x2="673.04" y2="572.495" stroke="black" stroke-width="1.5" stroke-linecap="round"/>
<line x1="439.214" y1="578.873" x2="673.04" y2="578.873" stroke="black" stroke-width="1.5" stroke-linecap="round"/>
<line x1="439.214" y1="585.252" x2="673.04" y2="585.252" stroke="black" stroke-width="1.5" stroke-linecap="round"/>
<line x1="439.214" y1="591.631" x2="673.04" y2="591.631" stroke="black" stroke-width="1.5" stroke-linecap="round"/>
<line x1="439.214" y1="598.01" x2="673.04" y2="598.01" stroke="black" stroke-width="1.5" stroke-linecap="round"/>
<line x1="198.49" y1="338.295" x2="198.49" y2="577.204" stroke="black" stroke-width="1.5" stroke-linecap="round"/>
<line x1="192.112" y1="338.294" x2="192.112" y2="577.204" stroke="black" stroke-width="1.5" stroke-linecap="round"/>
<line x1="185.733" y1="338.294" x2="185.733" y2="577.204" stroke="black" stroke-width="1.5" stroke-linecap="round"/>
<line x1="179.354" y1="338.294" x2="179.354" y2="577.204" stroke="black" stroke-width="1.5" stroke-linecap="round"/>
<line x1="172.976" y1="338.294" x2="172.976" y2="577.204" stroke="black" stroke-width="1.5" stroke-linecap="round"/>
<line x1="166.597" y1="338.294" x2="166.597" y2="577.204" stroke="black" stroke-width="1.5" stroke-linecap="round"/>
<line x1="160.219" y1="338.294" x2="160.219" y2="577.204" stroke="black" stroke-width="1.5" stroke-linecap="round"/>
<line x1="153.84" y1="338.294" x2="153.84" y2="577.204" stroke="black" stroke-width="1.5" stroke-linecap="round"/>
<line x1="147.462" y1="338.294" x2="147.462" y2="577.204" stroke="black" stroke-width="1.5" stroke-linecap="round"/>
<line x1="141.083" y1="338.294" x2="141.083" y2="577.204" stroke="black" stroke-width="1.5" stroke-linecap="round"/>
<line x1="134.705" y1="338.294" x2="134.705" y2="577.204" stroke="black" stroke-width="1.5" stroke-linecap="round"/>
<line x1="128.326" y1="338.294" x2="128.326" y2="577.204" stroke="black" stroke-width="1.5" stroke-linecap="round"/>
<line x1="121.947" y1="338.294" x2="121.947" y2="577.204" stroke="black" stroke-width="1.5" stroke-linecap="round"/>
<line x1="115.569" y1="338.294" x2="115.569" y2="577.204" stroke="black" stroke-width="1.5" stroke-linecap="round"/>
<circle cx="684.696" cy="85.6963" r="60.5964" transform="rotate(-45 684.696 85.6963)" fill="#FCF5EC"/>
<path d="M716.278 56.2736C724.398 64.3938 728.96 75.407 728.96 86.8906C728.96 98.3742 724.398 109.387 716.278 117.508C708.158 125.628 697.144 130.19 685.661 130.19C674.177 130.19 663.164 125.628 655.044 117.508L685.661 86.8906L716.278 56.2736Z" fill="#FDD491"/>
<path d="M652.275 114.51C644.155 106.389 639.593 95.3762 639.593 83.8926C639.593 72.409 644.155 61.3957 652.275 53.2756C660.395 45.1554 671.408 40.5936 682.892 40.5936C694.376 40.5936 705.389 45.1554 713.509 53.2756L682.892 83.8926L652.275 114.51Z" fill="url(#paint0_linear)"/>
<path d="M652.275 114.51C644.155 106.389 639.593 95.3762 639.593 83.8926C639.593 72.409 644.155 61.3957 652.275 53.2756C660.395 45.1554 671.408 40.5936 682.892 40.5936C694.376 40.5936 705.389 45.1554 713.509 53.2756L682.892 83.8926L652.275 114.51Z" fill="#413D45"/>
<path d="M289.005 659.714C289.006 647.988 293.643 636.743 301.894 628.452C310.146 620.161 321.336 615.504 333.005 615.506C344.673 615.507 355.863 620.166 364.112 628.459C372.362 636.751 376.996 647.998 376.995 659.724L333 659.719L289.005 659.714Z" fill="#413D45"/>
<path d="M376.995 662.788C376.994 674.514 372.357 685.759 364.106 694.05C355.854 702.34 344.664 706.997 332.995 706.996C321.327 706.995 310.137 702.335 301.888 694.043C293.638 685.75 289.004 674.504 289.005 662.778L333 662.783L376.995 662.788Z" fill="#FCF5EC"/>
<defs>
<linearGradient id="paint0_linear" x1="713.509" y1="114.51" x2="652.275" y2="53.2756" gradientUnits="userSpaceOnUse">
<stop stop-color="#FDD491"/>
<stop offset="1" stop-color="#413D45"/>
</linearGradient>
</defs>
</svg>
