<svg width="116" height="32" viewBox="0 0 116 32" fill="none" xmlns="http://www.w3.org/2000/svg">
<circle cx="16.9332" cy="16.0163" r="15.3086" stroke="#413D45" stroke-width="1.27571"/>
<path d="M54.0973 6.49346H59.5093C60.1839 6.49346 60.8073 6.57412 61.3793 6.73546C61.9659 6.89679 62.4646 7.13879 62.8753 7.46146C63.3006 7.76946 63.6306 8.17279 63.8653 8.67146C64.1146 9.15546 64.2393 9.72746 64.2393 10.3875C64.2393 11.2821 63.9899 12.0155 63.4913 12.5875C62.9926 13.1448 62.3473 13.5555 61.5553 13.8195V13.8635C62.0246 13.8928 62.4646 14.0175 62.8753 14.2375C63.2859 14.4428 63.6379 14.7215 63.9313 15.0735C64.2393 15.4108 64.4813 15.8068 64.6573 16.2615C64.8333 16.7161 64.9213 17.2075 64.9213 17.7355C64.9213 18.4395 64.7746 19.0628 64.4813 19.6055C64.2026 20.1335 63.8139 20.5808 63.3153 20.9475C62.8166 21.3141 62.2373 21.5928 61.5773 21.7835C60.9173 21.9741 60.2059 22.0695 59.4433 22.0695H54.0973V6.49346ZM56.2093 12.9615H59.0913C59.4873 12.9615 59.8613 12.9248 60.2133 12.8515C60.5653 12.7635 60.8733 12.6241 61.1373 12.4335C61.4013 12.2428 61.6066 12.0008 61.7533 11.7075C61.9146 11.4141 61.9953 11.0548 61.9953 10.6295C61.9953 10.0135 61.7973 9.47812 61.4013 9.02346C61.0053 8.56879 60.3819 8.34146 59.5313 8.34146H56.2093V12.9615ZM56.2093 20.2215H59.3113C59.6339 20.2215 59.9859 20.1921 60.3673 20.1335C60.7633 20.0601 61.1299 19.9281 61.4673 19.7375C61.8046 19.5321 62.0906 19.2608 62.3253 18.9235C62.5599 18.5861 62.6773 18.1388 62.6773 17.5815C62.6773 16.6575 62.3766 15.9681 61.7753 15.5135C61.1739 15.0441 60.3599 14.8095 59.3333 14.8095H56.2093V20.2215ZM67.9547 6.49346H70.0667V12.9615H78.1407V6.49346H80.2527V22.0695H78.1407V14.9415H70.0667V22.0695H67.9547V6.49346ZM83.7993 12.9175C84.3567 12.4041 85.002 12.0228 85.7353 11.7735C86.4687 11.5095 87.202 11.3775 87.9353 11.3775C88.698 11.3775 89.3507 11.4728 89.8933 11.6635C90.4507 11.8541 90.9053 12.1108 91.2573 12.4335C91.6093 12.7561 91.866 13.1301 92.0273 13.5555C92.2033 13.9661 92.2913 14.3988 92.2913 14.8535V20.1775C92.2913 20.5441 92.2987 20.8815 92.3133 21.1895C92.328 21.4975 92.35 21.7908 92.3793 22.0695H90.6193C90.5753 21.5415 90.5533 21.0135 90.5533 20.4855H90.5093C90.0693 21.1601 89.5487 21.6368 88.9473 21.9155C88.346 22.1941 87.6493 22.3335 86.8573 22.3335C86.3733 22.3335 85.9113 22.2675 85.4713 22.1355C85.0313 22.0035 84.6427 21.8055 84.3053 21.5415C83.9827 21.2775 83.726 20.9548 83.5353 20.5735C83.3447 20.1775 83.2493 19.7228 83.2493 19.2095C83.2493 18.5348 83.396 17.9701 83.6893 17.5155C83.9973 17.0608 84.408 16.6941 84.9213 16.4155C85.4493 16.1221 86.058 15.9168 86.7473 15.7995C87.4513 15.6675 88.1993 15.6015 88.9913 15.6015H90.4433V15.1615C90.4433 14.8975 90.392 14.6335 90.2893 14.3695C90.1867 14.1055 90.0327 13.8708 89.8273 13.6655C89.622 13.4455 89.3653 13.2768 89.0573 13.1595C88.7493 13.0275 88.3827 12.9615 87.9573 12.9615C87.576 12.9615 87.2387 12.9981 86.9453 13.0715C86.6667 13.1448 86.41 13.2401 86.1753 13.3575C85.9407 13.4601 85.728 13.5848 85.5373 13.7315C85.3467 13.8781 85.1633 14.0175 84.9873 14.1495L83.7993 12.9175ZM89.3873 17.0535C88.918 17.0535 88.434 17.0828 87.9353 17.1415C87.4513 17.1855 87.004 17.2808 86.5933 17.4275C86.1973 17.5741 85.8673 17.7795 85.6033 18.0435C85.354 18.3075 85.2293 18.6448 85.2293 19.0555C85.2293 19.6568 85.4273 20.0895 85.8233 20.3535C86.234 20.6175 86.784 20.7495 87.4733 20.7495C88.016 20.7495 88.478 20.6615 88.8593 20.4855C89.2407 20.2948 89.5487 20.0528 89.7833 19.7595C90.018 19.4661 90.1867 19.1435 90.2893 18.7915C90.392 18.4248 90.4433 18.0655 90.4433 17.7135V17.0535H89.3873ZM104.404 22.0695H102.424V20.4635H102.38C102.13 21.0208 101.698 21.4755 101.082 21.8275C100.466 22.1648 99.7542 22.3335 98.9475 22.3335C98.4342 22.3335 97.9502 22.2528 97.4955 22.0915C97.0409 21.9448 96.6375 21.7101 96.2855 21.3875C95.9482 21.0648 95.6769 20.6541 95.4715 20.1555C95.2662 19.6421 95.1635 19.0408 95.1635 18.3515V11.6415H97.1435V17.8015C97.1435 18.2855 97.2095 18.7035 97.3415 19.0555C97.4735 19.3928 97.6495 19.6715 97.8695 19.8915C98.0895 20.0968 98.3389 20.2508 98.6175 20.3535C98.9109 20.4415 99.2115 20.4855 99.5195 20.4855C99.9302 20.4855 100.312 20.4195 100.664 20.2875C101.016 20.1555 101.324 19.9501 101.588 19.6715C101.852 19.3781 102.057 19.0115 102.204 18.5715C102.35 18.1315 102.424 17.6108 102.424 17.0095V11.6415H104.404V22.0695ZM112.932 14.2595C112.697 13.9661 112.404 13.7241 112.052 13.5335C111.715 13.3281 111.297 13.2255 110.798 13.2255C110.329 13.2255 109.918 13.3281 109.566 13.5335C109.229 13.7241 109.06 14.0101 109.06 14.3915C109.06 14.6995 109.155 14.9488 109.346 15.1395C109.551 15.3301 109.786 15.4841 110.05 15.6015C110.329 15.7188 110.622 15.8068 110.93 15.8655C111.238 15.9241 111.502 15.9755 111.722 16.0195C112.147 16.1221 112.543 16.2468 112.91 16.3935C113.291 16.5401 113.614 16.7308 113.878 16.9655C114.157 17.2001 114.369 17.4861 114.516 17.8235C114.677 18.1608 114.758 18.5715 114.758 19.0555C114.758 19.6421 114.633 20.1481 114.384 20.5735C114.135 20.9841 113.812 21.3215 113.416 21.5855C113.02 21.8495 112.565 22.0401 112.052 22.1575C111.553 22.2748 111.047 22.3335 110.534 22.3335C109.669 22.3335 108.906 22.2015 108.246 21.9375C107.601 21.6735 107.021 21.1895 106.508 20.4855L108.004 19.2535C108.327 19.5761 108.686 19.8621 109.082 20.1115C109.478 20.3608 109.962 20.4855 110.534 20.4855C110.783 20.4855 111.033 20.4635 111.282 20.4195C111.546 20.3608 111.773 20.2801 111.964 20.1775C112.169 20.0601 112.331 19.9208 112.448 19.7595C112.58 19.5835 112.646 19.3855 112.646 19.1655C112.646 18.8721 112.551 18.6301 112.36 18.4395C112.184 18.2488 111.964 18.1021 111.7 17.9995C111.451 17.8821 111.179 17.7941 110.886 17.7355C110.607 17.6621 110.358 17.6035 110.138 17.5595C109.713 17.4568 109.309 17.3395 108.928 17.2075C108.547 17.0755 108.209 16.8995 107.916 16.6795C107.623 16.4595 107.388 16.1808 107.212 15.8435C107.036 15.5061 106.948 15.0881 106.948 14.5895C106.948 14.0468 107.058 13.5775 107.278 13.1815C107.513 12.7708 107.813 12.4335 108.18 12.1695C108.561 11.9055 108.987 11.7075 109.456 11.5755C109.94 11.4435 110.424 11.3775 110.908 11.3775C111.612 11.3775 112.287 11.5095 112.932 11.7735C113.577 12.0375 114.091 12.4775 114.472 13.0935L112.932 14.2595Z" fill="#413D45"/>
<path d="M4.45046 23.2226L16.9333 1.60176L29.4161 23.2226H4.45046Z" stroke="#413D45" stroke-width="1.27571"/>
</svg>
