<svg width="203" height="81" viewBox="0 0 203 81" fill="none" xmlns="http://www.w3.org/2000/svg">
<line x1="2" y1="43" x2="202" y2="43" stroke="#413D45" stroke-width="2" stroke-linecap="round"/>
<line x1="1.71289" y1="43.21" x2="69.8516" y2="43.21" stroke="#413D45" stroke-width="2" stroke-linecap="round"/>
<circle cx="90.7292" cy="40.0793" r="39.9816" fill="#FCF5EC"/>
<path d="M119.298 41.7631C119.298 49.34 116.288 56.6066 110.93 61.9642C105.572 67.3219 98.3058 70.3318 90.7289 70.3318C83.152 70.3318 75.8854 67.3219 70.5278 61.9642C65.1701 56.6066 62.1602 49.34 62.1602 41.7631L90.7289 41.7631H119.298Z" fill="#FDD491"/>
<path d="M62.1604 38.3959C62.1604 30.819 65.1703 23.5524 70.528 18.1947C75.8856 12.837 83.1522 9.82711 90.7291 9.82711C98.306 9.82711 105.573 12.837 110.93 18.1947C116.288 23.5524 119.298 30.819 119.298 38.3959L90.7291 38.3959H62.1604Z" fill="url(#paint0_linear)"/>
<path d="M62.1604 38.3959C62.1604 30.819 65.1703 23.5524 70.528 18.1947C75.8856 12.837 83.1522 9.82711 90.7291 9.82711C98.306 9.82711 105.573 12.837 110.93 18.1947C116.288 23.5524 119.298 30.819 119.298 38.3959L90.7291 38.3959H62.1604Z" fill="#413D45"/>
<defs>
<linearGradient id="paint0_linear" x1="90.7291" y1="66.9646" x2="90.7291" y2="9.82711" gradientUnits="userSpaceOnUse">
<stop stop-color="#FDD491"/>
<stop offset="1" stop-color="#EF6353"/>
</linearGradient>
</defs>
</svg>
