<svg width="73" height="58" viewBox="0 0 73 58" fill="none" xmlns="http://www.w3.org/2000/svg">
<path opacity="0.07" d="M72.2 8.40023C67.4 12.1336 63.6667 15.9336 61 19.8002C58.4667 23.5336 57.2 27.0669 57.2 30.4002C57.7333 30.1336 58.4 30.0002 59.2 30.0002C60.1333 29.8669 60.9333 29.8002 61.6 29.8002C64.6667 29.8002 67.2 31.0669 69.2 33.6002C71.3333 36.0002 72.4 39.0002 72.4 42.6002C72.4 47.0002 70.9333 50.6669 68 53.6002C65.0667 56.5336 61.4 58.0002 57 58.0002C52.3333 58.0002 48.6667 56.3336 46 53.0002C43.3333 49.5336 42 44.9336 42 39.2002C42 32.4002 44.0667 25.6669 48.2 19.0002C52.3333 12.3336 58.4 6.00024 66.4 0.000235558L72.2 8.40023ZM31 8.40023C26.2 12.1336 22.4667 15.9336 19.8 19.8002C17.2667 23.5336 16 27.0669 16 30.4002C16.5333 30.1336 17.2 30.0002 18 30.0002C18.9333 29.8669 19.7333 29.8002 20.4 29.8002C23.4667 29.8002 26 31.0669 28 33.6002C30.1333 36.0002 31.2 39.0002 31.2 42.6002C31.2 47.0002 29.7333 50.6669 26.8 53.6002C23.8667 56.5336 20.2 58.0002 15.8 58.0002C11.1333 58.0002 7.46667 56.3336 4.8 53.0002C2.13333 49.5336 0.800001 44.9336 0.800001 39.2002C0.800001 32.4002 2.86667 25.6669 7 19.0002C11.1333 12.3336 17.2 6.00024 25.2 0.000235558L31 8.40023Z" fill="#413D45"/>
</svg>
